# xmcd CD database file
#
# Track frame offsets:
#	150
#	28905
#	58137
#	83697
#	102407
#	122990
#	139597
#	174405
#	203077
#	235725
#	243842
#	267662
#	277922
#
# Disc length: 4009 seconds
#
# Revision: 0
# Processed by: cddbd v1.5.1PL0 Copyright (c) Steve Scherf et al.
# Submitted via: CDex 1.51
#
DISCID=b60fa70d
DTITLE=Phillip Johnston - Normalology
DYEAR=2001
DGENRE=Jazz
TTITLE0=Norma Lology
TTITLE1=Got Lucky
TTITLE2=Dr Kickback Supreme
TTITLE3=Things Happen
TTITLE4=Lobster Leaps In
TTITLE5=Almost Right
TTITLE6=Spilled Perfume
TTITLE7=Life's Other Mystery
TTITLE8=God's Little Joke
TTITLE9=My Grey Heaven
TTITLE10=Twilight Time Zone
TTITLE11=Slave Labor
TTITLE12=No Mistakes In Hell
EXTD=YEAR: 2001
EXTT0=
EXTT1=
EXTT2=
EXTT3=
EXTT4=
EXTT5=
EXTT6=
EXTT7=
EXTT8=
EXTT9=
EXTT10=
EXTT11=
EXTT12=
PLAYORDER=
